<?xml version="1.0" standalone="no"?>
<!DOCTYPE svg PUBLIC "-//W3C//DTD SVG 20010904//EN"
 "http://www.w3.org/TR/2001/REC-SVG-20010904/DTD/svg10.dtd">
<svg version="1.0" xmlns="http://www.w3.org/2000/svg"
 width="110.000000pt" height="110.000000pt" viewBox="0 0 110.000000 110.000000"
 preserveAspectRatio="xMidYMid meet">
<metadata>
Created by potrace 1.11, written by Peter Selinger 2001-2013
</metadata>
<g transform="translate(0.000000,110.000000) scale(0.100000,-0.100000)"
fill="#000000" stroke="none">
<path d="M247 984 c-286 -173 -325 -560 -78 -779 105 -92 259 -138 386 -113
91 17 124 29 165 58 15 11 30 17 34 13 3 -3 6 -2 6 3 0 6 20 25 45 44 24 18
42 37 39 42 -3 4 -1 8 3 8 15 0 72 97 81 138 7 31 6 48 -7 74 -16 35 -51 78
-51 63 0 -4 -8 -2 -17 6 -10 8 -31 16 -46 18 -32 3 -87 -16 -87 -31 0 -5 -4
-6 -10 -3 -5 3 -10 2 -10 -4 0 -5 -18 -28 -39 -50 -22 -23 -37 -41 -34 -41 11
0 -66 -48 -88 -56 -56 -17 -138 2 -186 44 -58 51 -79 150 -47 219 17 35 66 89
120 131 15 12 25 22 21 22 -4 0 2 9 14 21 24 24 24 88 0 133 -22 38 -83 76
-123 75 -19 0 -58 -16 -91 -35z"/>
<path d="M927 850 c-49 -15 -91 -87 -81 -138 18 -92 133 -132 203 -72 17 15
28 30 24 34 -3 3 -2 6 4 6 5 0 11 25 12 55 1 30 -2 55 -7 55 -5 0 -15 11 -22
25 -7 13 -16 22 -21 20 -4 -3 -9 -1 -11 4 -5 14 -69 21 -101 11z"/>
</g>
</svg>
